<svg width="2595" height="2052" xmlns="http://www.w3.org/2000/svg" xmlns:xlink="http://www.w3.org/1999/xlink" xml:space="preserve" overflow="hidden"><defs><clipPath id="clip0"><rect x="363" y="2649" width="2595" height="2052"/></clipPath><clipPath id="clip1"><rect x="638" y="3017" width="2271" height="1487"/></clipPath></defs><g clip-path="url(#clip0)" transform="translate(-363 -2649)"><rect x="364" y="2650" width="2592" height="2049" fill="#404040"/><g><path d="M800.526 3017.5 800.526 4501.5M962.532 3017.5 962.532 4501.5M1124.54 3017.5 1124.54 4501.5M1286.54 3017.5 1286.54 4501.5M1448.55 3017.5 1448.55 4501.5M1610.55 3017.5 1610.55 4501.5M1772.56 3017.5 1772.56 4501.5M1934.56 3017.5 1934.56 4501.5M2096.57 3017.5 2096.57 4501.5M2258.57 3017.5 2258.57 4501.5M2419.58 3017.5 2419.58 4501.5M2581.58 3017.5 2581.58 4501.5M2743.59 3017.5 2743.59 4501.5M2905.5 3017.5 2905.5 4501.5" stroke="#595959" stroke-width="3.43858" stroke-linejoin="round" stroke-miterlimit="10" stroke-opacity="0.74902" fill="none"/></g><g><path d="M638.5 4501.5 2905.5 4501.5M638.5 4408.65 2905.5 4408.65M638.5 4315.64 2905.5 4315.64M638.5 4222.64 2905.5 4222.64M638.5 4130.64 2905.5 4130.64M638.5 4037.63 2905.5 4037.63M638.5 3944.63 2905.5 3944.63M638.5 3852.63 2905.5 3852.63M638.5 3759.62 2905.5 3759.62M638.5 3666.62 2905.5 3666.62M638.5 3573.62 2905.5 3573.62M638.5 3481.61 2905.5 3481.61M638.5 3388.61 2905.5 3388.61M638.5 3295.61 2905.5 3295.61M638.5 3203.61 2905.5 3203.61M638.5 3110.6 2905.5 3110.6M638.5 3017.5 2905.5 3017.5" stroke="#595959" stroke-width="3.43858" stroke-linejoin="round" stroke-miterlimit="10" stroke-opacity="0.74902" fill="none"/></g><g><path d="M0 0 0.000360892 1484" stroke="#7F7F7F" stroke-width="3.43858" stroke-linejoin="round" stroke-miterlimit="10" fill="none" fill-rule="evenodd" transform="matrix(1 0 0 -1 638.5 4501.5)"/></g><g><path d="M720 3822.58C773.975 3759.9 827.949 3662.07 881.923 3634.53 935.898 3607 989.872 3649.49 1043.85 3657.37 1097.82 3665.26 1151.8 3669.25 1205.77 3681.82 1259.74 3694.39 1313.72 3716.7 1367.69 3732.8 1421.67 3748.91 1475.64 3764.85 1529.62 3778.43 1583.59 3792.02 1637.56 3806.4 1691.54 3814.33 1745.51 3822.26 1799.49 3826 1853.46 3826 1907.44 3826 1961.41 3821.91 2015.38 3814.33 2069.36 3806.75 2123.33 3795.52 2177.31 3780.53 2231.28 3765.54 2285.26 3743.48 2339.23 3724.39 2393.21 3705.29 2447.18 3680.01 2501.15 3665.94 2555.13 3651.88 2609.1 3629.07 2663.08 3640.02 2717.05 3650.96 2771.03 3701.08 2825 3731.61" stroke="#FF0000" stroke-width="8.02228" stroke-linecap="round" stroke-linejoin="round" stroke-miterlimit="10" fill="none"/></g><g><path d="M719.875 3811.81 730.874 3833.81 708.875 3833.81Z" stroke="#FF0000" stroke-width="4.58333" stroke-linejoin="round" stroke-miterlimit="10" fill="#115472"/><path d="M881.874 3623.81 892.874 3645.81 870.875 3645.81Z" stroke="#FF0000" stroke-width="4.58333" stroke-linejoin="round" stroke-miterlimit="10" fill="#115472"/><path d="M1043.87 3646.81 1054.87 3668.81 1032.88 3668.81Z" stroke="#FF0000" stroke-width="4.58333" stroke-linejoin="round" stroke-miterlimit="10" fill="#115472"/><path d="M1205.87 3670.81 1216.87 3692.81 1194.88 3692.81Z" stroke="#FF0000" stroke-width="4.58333" stroke-linejoin="round" stroke-miterlimit="10" fill="#115472"/><path d="M1367.87 3721.81 1378.87 3743.81 1356.88 3743.81Z" stroke="#FF0000" stroke-width="4.58333" stroke-linejoin="round" stroke-miterlimit="10" fill="#115472"/><path d="M1529.87 3767.81 1540.87 3789.81 1518.88 3789.81Z" stroke="#FF0000" stroke-width="4.58333" stroke-linejoin="round" stroke-miterlimit="10" fill="#115472"/><path d="M1691.87 3803.81 1702.87 3825.81 1680.88 3825.81Z" stroke="#FF0000" stroke-width="4.58333" stroke-linejoin="round" stroke-miterlimit="10" fill="#115472"/><path d="M1853.87 3814.81 1864.87 3836.81 1842.88 3836.81Z" stroke="#FF0000" stroke-width="4.58333" stroke-linejoin="round" stroke-miterlimit="10" fill="#115472"/><path d="M2015.87 3803.81 2026.87 3825.81 2004.87 3825.81Z" stroke="#FF0000" stroke-width="4.58333" stroke-linejoin="round" stroke-miterlimit="10" fill="#115472"/><path d="M2177.87 3769.81 2188.87 3791.81 2166.88 3791.81Z" stroke="#FF0000" stroke-width="4.58333" stroke-linejoin="round" stroke-miterlimit="10" fill="#115472"/><path d="M2339.87 3713.81 2350.87 3735.81 2328.88 3735.81Z" stroke="#FF0000" stroke-width="4.58333" stroke-linejoin="round" stroke-miterlimit="10" fill="#115472"/><path d="M2501.87 3655.81 2512.87 3677.81 2490.88 3677.81Z" stroke="#FF0000" stroke-width="4.58333" stroke-linejoin="round" stroke-miterlimit="10" fill="#115472"/><path d="M2662.87 3629.81 2673.87 3651.81 2651.88 3651.81Z" stroke="#FF0000" stroke-width="4.58333" stroke-linejoin="round" stroke-miterlimit="10" fill="#115472"/><path d="M2824.87 3720.81 2835.87 3742.81 2813.88 3742.81Z" stroke="#FF0000" stroke-width="4.58333" stroke-linejoin="round" stroke-miterlimit="10" fill="#115472"/></g><g><path d="M720 3087.31C773.975 3081.19 827.949 3066 881.923 3068.96 935.898 3071.93 989.872 3092.6 1043.85 3105.09 1097.82 3117.57 1151.8 3130.27 1205.77 3143.87 1259.74 3157.46 1313.72 3174.79 1367.69 3186.66 1421.67 3198.53 1475.64 3204.01 1529.62 3215.09 1583.59 3226.17 1637.56 3243.23 1691.54 3253.12 1745.51 3263.01 1799.49 3271.86 1853.46 3274.43 1907.44 3277 1961.41 3275.55 2015.38 3268.54 2069.36 3261.52 2123.33 3246.96 2177.31 3232.34 2231.28 3217.71 2285.26 3199.12 2339.23 3180.8 2393.21 3162.48 2447.18 3139.48 2501.15 3122.41 2555.13 3105.34 2609.1 3069.03 2663.08 3078.41 2717.05 3087.78 2771.03 3145.26 2825 3178.69" stroke="#FFC000" stroke-width="8.02228" stroke-linecap="round" stroke-linejoin="round" stroke-miterlimit="10" fill="none"/></g><g><path d="M719.875 3076.81 730.874 3087.81 719.875 3098.81 708.875 3087.81Z" stroke="#FFC000" stroke-width="4.58333" stroke-linejoin="round" stroke-miterlimit="10" fill="#CE632B"/><path d="M881.874 3057.81 892.874 3068.81 881.874 3079.81 870.875 3068.81Z" stroke="#FFC000" stroke-width="4.58333" stroke-linejoin="round" stroke-miterlimit="10" fill="#CE632B"/><path d="M1043.87 3094.81 1054.87 3105.81 1043.87 3116.81 1032.88 3105.81Z" stroke="#FFC000" stroke-width="4.58333" stroke-linejoin="round" stroke-miterlimit="10" fill="#CE632B"/><path d="M1205.87 3132.81 1216.87 3143.81 1205.87 3154.81 1194.88 3143.81Z" stroke="#FFC000" stroke-width="4.58333" stroke-linejoin="round" stroke-miterlimit="10" fill="#CE632B"/><path d="M1367.87 3175.81 1378.87 3186.81 1367.87 3197.81 1356.88 3186.81Z" stroke="#FFC000" stroke-width="4.58333" stroke-linejoin="round" stroke-miterlimit="10" fill="#CE632B"/><path d="M1529.87 3203.81 1540.87 3214.81 1529.87 3225.81 1518.88 3214.81Z" stroke="#FFC000" stroke-width="4.58333" stroke-linejoin="round" stroke-miterlimit="10" fill="#CE632B"/><path d="M1691.87 3242.81 1702.87 3253.81 1691.87 3264.81 1680.88 3253.81Z" stroke="#FFC000" stroke-width="4.58333" stroke-linejoin="round" stroke-miterlimit="10" fill="#CE632B"/><path d="M1853.87 3263.81 1864.87 3274.81 1853.87 3285.81 1842.88 3274.81Z" stroke="#FFC000" stroke-width="4.58333" stroke-linejoin="round" stroke-miterlimit="10" fill="#CE632B"/><path d="M2015.87 3257.81 2026.87 3268.81 2015.87 3279.81 2004.87 3268.81Z" stroke="#FFC000" stroke-width="4.58333" stroke-linejoin="round" stroke-miterlimit="10" fill="#CE632B"/><path d="M2177.87 3221.81 2188.87 3232.81 2177.87 3243.81 2166.88 3232.81Z" stroke="#FFC000" stroke-width="4.58333" stroke-linejoin="round" stroke-miterlimit="10" fill="#CE632B"/><path d="M2339.87 3169.81 2350.87 3180.81 2339.87 3191.81 2328.88 3180.81Z" stroke="#FFC000" stroke-width="4.58333" stroke-linejoin="round" stroke-miterlimit="10" fill="#CE632B"/><path d="M2501.87 3111.81 2512.87 3122.81 2501.87 3133.81 2490.88 3122.81Z" stroke="#FFC000" stroke-width="4.58333" stroke-linejoin="round" stroke-miterlimit="10" fill="#CE632B"/><path d="M2662.87 3067.81 2673.87 3078.81 2662.87 3089.81 2651.88 3078.81Z" stroke="#FFC000" stroke-width="4.58333" stroke-linejoin="round" stroke-miterlimit="10" fill="#CE632B"/><path d="M2824.87 3167.81 2835.87 3178.81 2824.87 3189.81 2813.88 3178.81Z" stroke="#FFC000" stroke-width="4.58333" stroke-linejoin="round" stroke-miterlimit="10" fill="#CE632B"/></g><g clip-path="url(#clip1)"><path d="M720 3015C773.975 3029.87 827.949 3048.9 881.923 3059.62 935.898 3070.33 989.872 3070.45 1043.85 3079.27 1097.82 3088.1 1151.8 3102.44 1205.77 3112.55 1259.74 3122.66 1313.72 3132.21 1367.69 3139.92 1421.67 3147.63 1475.64 3153.05 1529.62 3158.82 1583.59 3164.6 1637.56 3171.67 1691.54 3174.57 1745.51 3177.47 1799.49 3175.87 1853.46 3176.21 1907.44 3176.56 1961.41 3178 2015.38 3176.62 2069.36 3175.25 2123.33 3173.87 2177.31 3167.96 2231.28 3162.06 2285.26 3151.94 2339.23 3141.19 2393.21 3130.44 2447.18 3115.24 2501.15 3103.44 2555.13 3091.64 2609.1 3065.85 2663.08 3070.38 2717.05 3074.9 2771.03 3110.51 2825 3130.58" stroke="#00B0F0" stroke-width="8.02228" stroke-linecap="round" stroke-linejoin="round" stroke-miterlimit="10" fill="none"/></g><g><path d="M870.875 3048.81 892.874 3048.81 892.874 3070.81 870.875 3070.81Z" stroke="#00B0F0" stroke-width="4.58333" stroke-linejoin="round" stroke-miterlimit="10" fill="#155E1F"/><path d="M1032.88 3068.81 1054.87 3068.81 1054.87 3090.81 1032.88 3090.81Z" stroke="#00B0F0" stroke-width="4.58333" stroke-linejoin="round" stroke-miterlimit="10" fill="#155E1F"/><path d="M1194.88 3101.81 1216.87 3101.81 1216.87 3123.81 1194.88 3123.81Z" stroke="#00B0F0" stroke-width="4.58333" stroke-linejoin="round" stroke-miterlimit="10" fill="#155E1F"/><path d="M1356.88 3128.81 1378.87 3128.81 1378.87 3150.81 1356.88 3150.81Z" stroke="#00B0F0" stroke-width="4.58333" stroke-linejoin="round" stroke-miterlimit="10" fill="#155E1F"/><path d="M1518.88 3147.81 1540.87 3147.81 1540.87 3169.81 1518.88 3169.81Z" stroke="#00B0F0" stroke-width="4.58333" stroke-linejoin="round" stroke-miterlimit="10" fill="#155E1F"/><path d="M1680.88 3163.81 1702.87 3163.81 1702.87 3185.81 1680.88 3185.81Z" stroke="#00B0F0" stroke-width="4.58333" stroke-linejoin="round" stroke-miterlimit="10" fill="#155E1F"/><path d="M1842.88 3165.81 1864.87 3165.81 1864.87 3187.81 1842.88 3187.81Z" stroke="#00B0F0" stroke-width="4.58333" stroke-linejoin="round" stroke-miterlimit="10" fill="#155E1F"/><path d="M2004.87 3165.81 2026.87 3165.81 2026.87 3187.81 2004.87 3187.81Z" stroke="#00B0F0" stroke-width="4.58333" stroke-linejoin="round" stroke-miterlimit="10" fill="#155E1F"/><path d="M2166.88 3157.81 2188.87 3157.81 2188.87 3179.81 2166.88 3179.81Z" stroke="#00B0F0" stroke-width="4.58333" stroke-linejoin="round" stroke-miterlimit="10" fill="#155E1F"/><path d="M2328.88 3130.81 2350.87 3130.81 2350.87 3152.81 2328.88 3152.81Z" stroke="#00B0F0" stroke-width="4.58333" stroke-linejoin="round" stroke-miterlimit="10" fill="#155E1F"/><path d="M2490.88 3092.81 2512.87 3092.81 2512.87 3114.81 2490.88 3114.81Z" stroke="#00B0F0" stroke-width="4.58333" stroke-linejoin="round" stroke-miterlimit="10" fill="#155E1F"/><path d="M2651.88 3059.81 2673.87 3059.81 2673.87 3081.81 2651.88 3081.81Z" stroke="#00B0F0" stroke-width="4.58333" stroke-linejoin="round" stroke-miterlimit="10" fill="#155E1F"/><path d="M2813.88 3119.81 2835.87 3119.81 2835.87 3141.81 2813.88 3141.81Z" stroke="#00B0F0" stroke-width="4.58333" stroke-linejoin="round" stroke-miterlimit="10" fill="#155E1F"/></g><g><path d="M720 3787C773.975 3824.41 827.949 3880.49 881.923 3899.24 935.898 3918 989.872 3899.44 1043.85 3899.54 1097.82 3899.64 1151.8 3899.59 1205.77 3899.83 1259.74 3900.08 1313.72 3901.06 1367.69 3901.01 1421.67 3900.96 1475.64 3899.78 1529.62 3899.54 1583.59 3899.29 1637.56 3899.74 1691.54 3899.54 1745.51 3899.34 1799.49 3898.26 1853.46 3898.36 1907.44 3898.46 1961.41 3899.74 2015.38 3900.13 2069.36 3900.52 2123.33 3900.67 2177.31 3900.72 2231.28 3900.77 2285.26 3900.82 2339.23 3900.42 2393.21 3900.03 2447.18 3898.31 2501.15 3898.36 2555.13 3898.41 2609.1 3900.47 2663.08 3900.72 2717.05 3900.96 2771.03 3900.13 2825 3899.83" stroke="#FFFF00" stroke-width="8.02228" stroke-linecap="round" stroke-linejoin="round" stroke-miterlimit="10" fill="none"/></g><g><path d="M731.374 3799.31 708.375 3776.31M708.375 3799.31 731.374 3776.31" stroke="#FFFF00" stroke-width="4.58333" stroke-linejoin="round" stroke-miterlimit="10" fill="#0C8BBC"/><path d="M893.374 3911.31 870.375 3888.31M870.375 3911.31 893.374 3888.31" stroke="#FFFF00" stroke-width="4.58333" stroke-linejoin="round" stroke-miterlimit="10" fill="#0C8BBC"/><path d="M1055.37 3911.31 1032.37 3888.31M1032.37 3911.31 1055.37 3888.31" stroke="#FFFF00" stroke-width="4.58333" stroke-linejoin="round" stroke-miterlimit="10" fill="#0C8BBC"/><path d="M1217.37 3911.31 1194.37 3888.31M1194.37 3911.31 1217.37 3888.31" stroke="#FFFF00" stroke-width="4.58333" stroke-linejoin="round" stroke-miterlimit="10" fill="#0C8BBC"/><path d="M1379.37 3913.31 1356.37 3890.31M1356.37 3913.31 1379.37 3890.31" stroke="#FFFF00" stroke-width="4.58333" stroke-linejoin="round" stroke-miterlimit="10" fill="#0C8BBC"/><path d="M1541.37 3911.31 1518.38 3888.31M1518.38 3911.31 1541.37 3888.31" stroke="#FFFF00" stroke-width="4.58333" stroke-linejoin="round" stroke-miterlimit="10" fill="#0C8BBC"/><path d="M1703.37 3911.31 1680.37 3888.31M1680.37 3911.31 1703.37 3888.31" stroke="#FFFF00" stroke-width="4.58333" stroke-linejoin="round" stroke-miterlimit="10" fill="#0C8BBC"/><path d="M1865.37 3910.31 1842.37 3887.31M1842.37 3910.31 1865.37 3887.31" stroke="#FFFF00" stroke-width="4.58333" stroke-linejoin="round" stroke-miterlimit="10" fill="#0C8BBC"/><path d="M2027.37 3912.31 2004.37 3889.31M2004.37 3912.31 2027.37 3889.31" stroke="#FFFF00" stroke-width="4.58333" stroke-linejoin="round" stroke-miterlimit="10" fill="#0C8BBC"/><path d="M2189.37 3912.31 2166.38 3889.31M2166.38 3912.31 2189.37 3889.31" stroke="#FFFF00" stroke-width="4.58333" stroke-linejoin="round" stroke-miterlimit="10" fill="#0C8BBC"/><path d="M2351.37 3912.31 2328.37 3889.31M2328.37 3912.31 2351.37 3889.31" stroke="#FFFF00" stroke-width="4.58333" stroke-linejoin="round" stroke-miterlimit="10" fill="#0C8BBC"/><path d="M2513.37 3910.31 2490.37 3887.31M2490.37 3910.31 2513.37 3887.31" stroke="#FFFF00" stroke-width="4.58333" stroke-linejoin="round" stroke-miterlimit="10" fill="#0C8BBC"/><path d="M2674.37 3912.31 2651.38 3889.31M2651.38 3912.31 2674.37 3889.31" stroke="#FFFF00" stroke-width="4.58333" stroke-linejoin="round" stroke-miterlimit="10" fill="#0C8BBC"/><path d="M2836.37 3911.31 2813.37 3888.31M2813.37 3911.31 2836.37 3888.31" stroke="#FFFF00" stroke-width="4.58333" stroke-linejoin="round" stroke-miterlimit="10" fill="#0C8BBC"/></g><g><path d="M720 3588.41C773.975 3623.49 827.949 3677.26 881.923 3693.63 935.898 3710 989.872 3691.29 1043.85 3686.63 1097.82 3681.98 1151.8 3673.85 1205.77 3665.69 1259.74 3657.53 1313.72 3647.86 1367.69 3637.66 1421.67 3627.47 1475.64 3614.07 1529.62 3604.52 1583.59 3594.97 1637.56 3584.99 1691.54 3580.35 1745.51 3575.7 1799.49 3574 1853.46 3576.64 1907.44 3579.27 1961.41 3590.25 2015.38 3596.16 2069.36 3602.07 2123.33 3603.32 2177.31 3612.09 2231.28 3620.87 2285.26 3638.82 2339.23 3648.83 2393.21 3658.83 2447.18 3665.18 2501.15 3672.15 2555.13 3679.12 2609.1 3696.15 2663.08 3690.64 2717.05 3685.12 2771.03 3656.25 2825 3639.06" stroke="#00B050" stroke-width="8.02228" stroke-linecap="round" stroke-linejoin="round" stroke-miterlimit="10" fill="none"/></g><g><path d="M730.874 3588.81C730.874 3594.89 725.95 3599.81 719.875 3599.81 713.8 3599.81 708.875 3594.89 708.875 3588.81 708.875 3582.74 713.8 3577.81 719.875 3577.81 725.95 3577.81 730.874 3582.74 730.874 3588.81Z" stroke="#00B050" stroke-width="4.58333" stroke-linejoin="round" stroke-miterlimit="10" fill="#8D2582"/><path d="M892.874 3693.81C892.874 3699.89 887.949 3704.81 881.874 3704.81 875.8 3704.81 870.875 3699.89 870.875 3693.81 870.875 3687.74 875.8 3682.81 881.874 3682.81 887.949 3682.81 892.874 3687.74 892.874 3693.81Z" stroke="#00B050" stroke-width="4.58333" stroke-linejoin="round" stroke-miterlimit="10" fill="#8D2582"/><path d="M1054.87 3686.81C1054.87 3692.89 1049.95 3697.81 1043.87 3697.81 1037.8 3697.81 1032.88 3692.89 1032.88 3686.81 1032.88 3680.74 1037.8 3675.81 1043.87 3675.81 1049.95 3675.81 1054.87 3680.74 1054.87 3686.81Z" stroke="#00B050" stroke-width="4.58333" stroke-linejoin="round" stroke-miterlimit="10" fill="#8D2582"/><path d="M1216.87 3666.81C1216.87 3672.89 1211.95 3677.81 1205.87 3677.81 1199.8 3677.81 1194.88 3672.89 1194.88 3666.81 1194.88 3660.74 1199.8 3655.81 1205.87 3655.81 1211.95 3655.81 1216.87 3660.74 1216.87 3666.81Z" stroke="#00B050" stroke-width="4.58333" stroke-linejoin="round" stroke-miterlimit="10" fill="#8D2582"/><path d="M1378.87 3638.81C1378.87 3644.89 1373.95 3649.81 1367.87 3649.81 1361.8 3649.81 1356.88 3644.89 1356.88 3638.81 1356.88 3632.74 1361.8 3627.81 1367.87 3627.81 1373.95 3627.81 1378.87 3632.74 1378.87 3638.81Z" stroke="#00B050" stroke-width="4.58333" stroke-linejoin="round" stroke-miterlimit="10" fill="#8D2582"/><path d="M1540.87 3604.81C1540.87 3610.89 1535.95 3615.81 1529.87 3615.81 1523.8 3615.81 1518.88 3610.89 1518.88 3604.81 1518.88 3598.74 1523.8 3593.81 1529.87 3593.81 1535.95 3593.81 1540.87 3598.74 1540.87 3604.81Z" stroke="#00B050" stroke-width="4.58333" stroke-linejoin="round" stroke-miterlimit="10" fill="#8D2582"/><path d="M1702.87 3580.81C1702.87 3586.89 1697.95 3591.81 1691.87 3591.81 1685.8 3591.81 1680.88 3586.89 1680.88 3580.81 1680.88 3574.74 1685.8 3569.81 1691.87 3569.81 1697.95 3569.81 1702.87 3574.74 1702.87 3580.81Z" stroke="#00B050" stroke-width="4.58333" stroke-linejoin="round" stroke-miterlimit="10" fill="#8D2582"/><path d="M1864.87 3577.81C1864.87 3583.89 1859.95 3588.81 1853.87 3588.81 1847.8 3588.81 1842.88 3583.89 1842.88 3577.81 1842.88 3571.74 1847.8 3566.81 1853.87 3566.81 1859.95 3566.81 1864.87 3571.74 1864.87 3577.81Z" stroke="#00B050" stroke-width="4.58333" stroke-linejoin="round" stroke-miterlimit="10" fill="#8D2582"/><path d="M2026.87 3596.81C2026.87 3602.89 2021.95 3607.81 2015.87 3607.81 2009.8 3607.81 2004.87 3602.89 2004.87 3596.81 2004.87 3590.74 2009.8 3585.81 2015.87 3585.81 2021.95 3585.81 2026.87 3590.74 2026.87 3596.81Z" stroke="#00B050" stroke-width="4.58333" stroke-linejoin="round" stroke-miterlimit="10" fill="#8D2582"/><path d="M2188.87 3612.81C2188.87 3618.89 2183.95 3623.81 2177.87 3623.81 2171.8 3623.81 2166.88 3618.89 2166.88 3612.81 2166.88 3606.74 2171.8 3601.81 2177.87 3601.81 2183.95 3601.81 2188.87 3606.74 2188.87 3612.81Z" stroke="#00B050" stroke-width="4.58333" stroke-linejoin="round" stroke-miterlimit="10" fill="#8D2582"/><path d="M2350.87 3649.81C2350.87 3655.89 2345.95 3660.81 2339.87 3660.81 2333.8 3660.81 2328.88 3655.89 2328.88 3649.81 2328.88 3643.74 2333.8 3638.81 2339.87 3638.81 2345.95 3638.81 2350.87 3643.74 2350.87 3649.81Z" stroke="#00B050" stroke-width="4.58333" stroke-linejoin="round" stroke-miterlimit="10" fill="#8D2582"/><path d="M2512.87 3672.81C2512.87 3678.89 2507.95 3683.81 2501.87 3683.81 2495.8 3683.81 2490.88 3678.89 2490.88 3672.81 2490.88 3666.74 2495.8 3661.81 2501.87 3661.81 2507.95 3661.81 2512.87 3666.74 2512.87 3672.81Z" stroke="#00B050" stroke-width="4.58333" stroke-linejoin="round" stroke-miterlimit="10" fill="#8D2582"/><path d="M2673.87 3690.81C2673.87 3696.89 2668.95 3701.81 2662.87 3701.81 2656.8 3701.81 2651.88 3696.89 2651.88 3690.81 2651.88 3684.74 2656.8 3679.81 2662.87 3679.81 2668.95 3679.81 2673.87 3684.74 2673.87 3690.81Z" stroke="#00B050" stroke-width="4.58333" stroke-linejoin="round" stroke-miterlimit="10" fill="#8D2582"/><path d="M2835.87 3639.81C2835.87 3645.89 2830.95 3650.81 2824.87 3650.81 2818.8 3650.81 2813.88 3645.89 2813.88 3639.81 2813.88 3633.74 2818.8 3628.81 2824.87 3628.81 2830.95 3628.81 2835.87 3633.74 2835.87 3639.81Z" stroke="#00B050" stroke-width="4.58333" stroke-linejoin="round" stroke-miterlimit="10" fill="#8D2582"/></g><g><path d="M720 4218C773.975 4170.92 827.949 4112.31 881.923 4076.76 935.898 4041.22 989.872 4034.66 1043.85 4004.72 1097.82 3974.78 1151.8 3924.09 1205.77 3897.12 1259.74 3870.15 1313.72 3851.34 1367.69 3842.91 1421.67 3834.48 1475.64 3846.21 1529.62 3846.55 1583.59 3846.88 1637.56 3845.47 1691.54 3844.93 1745.51 3844.4 1799.49 3847.34 1853.46 3843.32 1907.44 3839.3 1961.41 3820 2015.38 3820.81 2069.36 3821.61 2123.33 3834.93 2177.31 3848.16 2231.28 3861.39 2285.26 3872.62 2339.23 3900.17 2393.21 3927.72 2447.18 3983.3 2501.15 4013.45 2555.13 4043.6 2609.1 4096.08 2663.08 4081.08 2717.05 4066.08 2771.03 3975.98 2825 3923.43" stroke="#215F9A" stroke-width="8.02228" stroke-linecap="round" stroke-linejoin="round" stroke-miterlimit="10" fill="none"/></g><g><path d="M719.875 4207.81 730.874 4229.81 708.875 4229.81Z" stroke="#215F9A" stroke-width="4.58333" stroke-linejoin="round" stroke-miterlimit="10" fill="#449328"/><path d="M881.874 4066.81 892.874 4088.81 870.875 4088.81Z" stroke="#215F9A" stroke-width="4.58333" stroke-linejoin="round" stroke-miterlimit="10" fill="#449328"/><path d="M1043.87 3993.81 1054.87 4015.81 1032.88 4015.81Z" stroke="#215F9A" stroke-width="4.58333" stroke-linejoin="round" stroke-miterlimit="10" fill="#449328"/><path d="M1205.87 3886.81 1216.87 3908.81 1194.88 3908.81Z" stroke="#215F9A" stroke-width="4.58333" stroke-linejoin="round" stroke-miterlimit="10" fill="#449328"/><path d="M1367.87 3832.81 1378.87 3854.81 1356.88 3854.81Z" stroke="#215F9A" stroke-width="4.58333" stroke-linejoin="round" stroke-miterlimit="10" fill="#449328"/><path d="M1529.87 3835.81 1540.87 3857.81 1518.88 3857.81Z" stroke="#215F9A" stroke-width="4.58333" stroke-linejoin="round" stroke-miterlimit="10" fill="#449328"/><path d="M1691.87 3834.81 1702.87 3856.81 1680.88 3856.81Z" stroke="#215F9A" stroke-width="4.58333" stroke-linejoin="round" stroke-miterlimit="10" fill="#449328"/><path d="M1853.87 3832.81 1864.87 3854.81 1842.88 3854.81Z" stroke="#215F9A" stroke-width="4.58333" stroke-linejoin="round" stroke-miterlimit="10" fill="#449328"/><path d="M2015.87 3809.81 2026.87 3831.81 2004.87 3831.81Z" stroke="#215F9A" stroke-width="4.58333" stroke-linejoin="round" stroke-miterlimit="10" fill="#449328"/><path d="M2177.87 3837.81 2188.87 3859.81 2166.88 3859.81Z" stroke="#215F9A" stroke-width="4.58333" stroke-linejoin="round" stroke-miterlimit="10" fill="#449328"/><path d="M2339.87 3889.81 2350.87 3911.81 2328.88 3911.81Z" stroke="#215F9A" stroke-width="4.58333" stroke-linejoin="round" stroke-miterlimit="10" fill="#449328"/><path d="M2501.87 4002.81 2512.87 4024.81 2490.88 4024.81Z" stroke="#215F9A" stroke-width="4.58333" stroke-linejoin="round" stroke-miterlimit="10" fill="#449328"/><path d="M2662.87 4070.81 2673.87 4092.81 2651.88 4092.81Z" stroke="#215F9A" stroke-width="4.58333" stroke-linejoin="round" stroke-miterlimit="10" fill="#449328"/><path d="M2824.87 3912.81 2835.87 3934.81 2813.88 3934.81Z" stroke="#215F9A" stroke-width="4.58333" stroke-linejoin="round" stroke-miterlimit="10" fill="#449328"/></g><g><path d="M720 4361.54C773.975 4359.41 827.949 4354.91 881.923 4355.14 935.898 4355.36 989.872 4358.86 1043.85 4362.91 1097.82 4366.96 1151.8 4374.2 1205.77 4379.44 1259.74 4384.68 1313.72 4388.04 1367.69 4394.34 1421.67 4400.65 1475.64 4409.76 1529.62 4417.27 1583.59 4424.77 1637.56 4433.63 1691.54 4439.39 1745.51 4445.16 1799.49 4450.72 1853.46 4451.86 1907.44 4453 1961.41 4449.84 2015.38 4446.23 2069.36 4442.61 2123.33 4437.39 2177.31 4430.17 2231.28 4422.95 2285.26 4412.18 2339.23 4402.88 2393.21 4393.59 2447.18 4382.79 2501.15 4374.4 2555.13 4366 2609.1 4348 2663.08 4352.53 2717.05 4357.05 2771.03 4385.21 2825 4401.55" stroke="#84E291" stroke-width="8.02228" stroke-linecap="square" stroke-linejoin="round" stroke-miterlimit="10" stroke-dasharray="24.0668 8.02228" fill="none"/></g><g><path d="M719.875 4350.81 730.874 4372.81 708.875 4372.81Z" stroke="#84E291" stroke-width="4.58333" stroke-linejoin="round" stroke-miterlimit="10" fill="#8599AA"/><path d="M881.874 4344.81 892.874 4366.81 870.875 4366.81Z" stroke="#84E291" stroke-width="4.58333" stroke-linejoin="round" stroke-miterlimit="10" fill="#8599AA"/><path d="M1043.87 4351.81 1054.87 4373.81 1032.88 4373.81Z" stroke="#84E291" stroke-width="4.58333" stroke-linejoin="round" stroke-miterlimit="10" fill="#8599AA"/><path d="M1205.87 4368.81 1216.87 4390.81 1194.88 4390.81Z" stroke="#84E291" stroke-width="4.58333" stroke-linejoin="round" stroke-miterlimit="10" fill="#8599AA"/><path d="M1367.87 4383.81 1378.87 4405.81 1356.88 4405.81Z" stroke="#84E291" stroke-width="4.58333" stroke-linejoin="round" stroke-miterlimit="10" fill="#8599AA"/><path d="M1529.87 4406.81 1540.87 4428.81 1518.88 4428.81Z" stroke="#84E291" stroke-width="4.58333" stroke-linejoin="round" stroke-miterlimit="10" fill="#8599AA"/><path d="M1691.87 4428.81 1702.87 4450.81 1680.88 4450.81Z" stroke="#84E291" stroke-width="4.58333" stroke-linejoin="round" stroke-miterlimit="10" fill="#8599AA"/><path d="M1853.87 4441.81 1864.87 4463.81 1842.88 4463.81Z" stroke="#84E291" stroke-width="4.58333" stroke-linejoin="round" stroke-miterlimit="10" fill="#8599AA"/><path d="M2015.87 4435.81 2026.87 4457.81 2004.87 4457.81Z" stroke="#84E291" stroke-width="4.58333" stroke-linejoin="round" stroke-miterlimit="10" fill="#8599AA"/><path d="M2177.87 4419.81 2188.87 4441.81 2166.88 4441.81Z" stroke="#84E291" stroke-width="4.58333" stroke-linejoin="round" stroke-miterlimit="10" fill="#8599AA"/><path d="M2339.87 4392.81 2350.87 4414.81 2328.88 4414.81Z" stroke="#84E291" stroke-width="4.58333" stroke-linejoin="round" stroke-miterlimit="10" fill="#8599AA"/><path d="M2501.87 4363.81 2512.87 4385.81 2490.88 4385.81Z" stroke="#84E291" stroke-width="4.58333" stroke-linejoin="round" stroke-miterlimit="10" fill="#8599AA"/><path d="M2662.87 4341.81 2673.87 4363.81 2651.88 4363.81Z" stroke="#84E291" stroke-width="4.58333" stroke-linejoin="round" stroke-miterlimit="10" fill="#8599AA"/><path d="M2824.87 4390.81 2835.87 4412.81 2813.88 4412.81Z" stroke="#84E291" stroke-width="4.58333" stroke-linejoin="round" stroke-miterlimit="10" fill="#8599AA"/></g><g><path d="M720 4367.84C773.975 4362.95 827.949 4354.76 881.923 4353.16 935.898 4351.56 989.872 4354.94 1043.85 4358.26 1097.82 4361.57 1151.8 4367.48 1205.77 4373.07 1259.74 4378.65 1313.72 4384.83 1367.69 4391.77 1421.67 4398.72 1475.64 4407.6 1529.62 4414.76 1583.59 4421.92 1637.56 4429.58 1691.54 4434.75 1745.51 4439.92 1799.49 4444.54 1853.46 4445.77 1907.44 4447 1961.41 4445.28 2015.38 4442.12 2069.36 4438.96 2123.33 4433.18 2177.31 4426.83 2231.28 4420.48 2285.26 4412.81 2339.23 4404.04 2393.21 4395.27 2447.18 4382.54 2501.15 4374.21 2555.13 4365.88 2609.1 4350 2663.08 4354.08 2717.05 4358.15 2771.03 4383.81 2825 4398.67" stroke="#D86ECC" stroke-width="8.02228" stroke-linecap="round" stroke-linejoin="round" stroke-miterlimit="10" fill="none"/></g><g><path d="M731.374 4379.31 708.375 4356.31M719.875 4356.31 719.875 4379.31M708.375 4379.31 731.374 4356.31" stroke="#D86ECC" stroke-width="4.58333" stroke-linejoin="round" stroke-miterlimit="10" fill="#EEA18A"/><path d="M893.374 4364.31 870.375 4341.31M881.874 4341.31 881.874 4364.31M870.375 4364.31 893.374 4341.31" stroke="#D86ECC" stroke-width="4.58333" stroke-linejoin="round" stroke-miterlimit="10" fill="#EEA18A"/><path d="M1055.37 4369.31 1032.37 4346.31M1043.87 4346.31 1043.87 4369.31M1032.37 4369.31 1055.37 4346.31" stroke="#D86ECC" stroke-width="4.58333" stroke-linejoin="round" stroke-miterlimit="10" fill="#EEA18A"/><path d="M1217.37 4384.31 1194.37 4361.31M1205.87 4361.31 1205.87 4384.31M1194.37 4384.31 1217.37 4361.31" stroke="#D86ECC" stroke-width="4.58333" stroke-linejoin="round" stroke-miterlimit="10" fill="#EEA18A"/><path d="M1379.37 4403.31 1356.37 4380.31M1367.87 4380.31 1367.87 4403.31M1356.37 4403.31 1379.37 4380.31" stroke="#D86ECC" stroke-width="4.58333" stroke-linejoin="round" stroke-miterlimit="10" fill="#EEA18A"/><path d="M1541.37 4426.31 1518.38 4403.31M1529.87 4403.31 1529.87 4426.31M1518.38 4426.31 1541.37 4403.31" stroke="#D86ECC" stroke-width="4.58333" stroke-linejoin="round" stroke-miterlimit="10" fill="#EEA18A"/><path d="M1703.37 4446.31 1680.37 4423.31M1691.87 4423.31 1691.87 4446.31M1680.37 4446.31 1703.37 4423.31" stroke="#D86ECC" stroke-width="4.58333" stroke-linejoin="round" stroke-miterlimit="10" fill="#EEA18A"/><path d="M1865.37 4457.31 1842.37 4434.31M1853.87 4434.31 1853.87 4457.31M1842.37 4457.31 1865.37 4434.31" stroke="#D86ECC" stroke-width="4.58333" stroke-linejoin="round" stroke-miterlimit="10" fill="#EEA18A"/><path d="M2027.37 4454.31 2004.37 4431.31M2015.87 4431.31 2015.87 4454.31M2004.37 4454.31 2027.37 4431.31" stroke="#D86ECC" stroke-width="4.58333" stroke-linejoin="round" stroke-miterlimit="10" fill="#EEA18A"/><path d="M2189.37 4438.31 2166.38 4415.31M2177.87 4415.31 2177.87 4438.31M2166.38 4438.31 2189.37 4415.31" stroke="#D86ECC" stroke-width="4.58333" stroke-linejoin="round" stroke-miterlimit="10" fill="#EEA18A"/><path d="M2351.37 4416.31 2328.37 4393.31M2339.87 4393.31 2339.87 4416.31M2328.37 4416.31 2351.37 4393.31" stroke="#D86ECC" stroke-width="4.58333" stroke-linejoin="round" stroke-miterlimit="10" fill="#EEA18A"/><path d="M2513.37 4386.31 2490.37 4363.31M2501.87 4363.31 2501.87 4386.31M2490.37 4386.31 2513.37 4363.31" stroke="#D86ECC" stroke-width="4.58333" stroke-linejoin="round" stroke-miterlimit="10" fill="#EEA18A"/><path d="M2674.37 4365.31 2651.38 4342.31M2662.87 4342.31 2662.87 4365.31M2651.38 4365.31 2674.37 4342.31" stroke="#D86ECC" stroke-width="4.58333" stroke-linejoin="round" stroke-miterlimit="10" fill="#EEA18A"/><path d="M2836.37 4410.31 2813.37 4387.31M2824.87 4387.31 2824.87 4410.31M2813.37 4410.31 2836.37 4387.31" stroke="#D86ECC" stroke-width="4.58333" stroke-linejoin="round" stroke-miterlimit="10" fill="#EEA18A"/></g><g><text fill="#BFBFBF" font-family="Calibri,Calibri_MSFontService,sans-serif" font-weight="400" font-size="41" transform="matrix(1 0 0 1 652.823 4566)">Physical</text></g><g><text fill="#BFBFBF" font-family="Calibri,Calibri_MSFontService,sans-serif" font-weight="400" font-size="41" transform="matrix(1 0 0 1 854.422 4566)">Jan</text></g><g><text fill="#BFBFBF" font-family="Calibri,Calibri_MSFontService,sans-serif" font-weight="400" font-size="41" transform="matrix(1 0 0 1 1013.06 4566)">Feb</text></g><g><text fill="#BFBFBF" font-family="Calibri,Calibri_MSFontService,sans-serif" font-weight="400" font-size="41" transform="matrix(1 0 0 1 1170.87 4566)">Mar</text></g><g><text fill="#BFBFBF" font-family="Calibri,Calibri_MSFontService,sans-serif" font-weight="400" font-size="41" transform="matrix(1 0 0 1 1337.53 4566)">Apr</text></g><g><text fill="#BFBFBF" font-family="Calibri,Calibri_MSFontService,sans-serif" font-weight="400" font-size="41" transform="matrix(1 0 0 1 1492.58 4566)">May</text></g><g><text fill="#BFBFBF" font-family="Calibri,Calibri_MSFontService,sans-serif" font-weight="400" font-size="41" transform="matrix(1 0 0 1 1663.11 4566)">Jun</text></g><g><text fill="#BFBFBF" font-family="Calibri,Calibri_MSFontService,sans-serif" font-weight="400" font-size="41" transform="matrix(1 0 0 1 1831.14 4566)">Jul</text></g><g><text fill="#BFBFBF" font-family="Calibri,Calibri_MSFontService,sans-serif" font-weight="400" font-size="41" transform="matrix(1 0 0 1 1982.74 4566)">Aug</text></g><g><text fill="#BFBFBF" font-family="Calibri,Calibri_MSFontService,sans-serif" font-weight="400" font-size="41" transform="matrix(1 0 0 1 2146.57 4566)">Sep</text></g><g><text fill="#BFBFBF" font-family="Calibri,Calibri_MSFontService,sans-serif" font-weight="400" font-size="41" transform="matrix(1 0 0 1 2309.79 4566)">Oct</text></g><g><text fill="#BFBFBF" font-family="Calibri,Calibri_MSFontService,sans-serif" font-weight="400" font-size="41" transform="matrix(1 0 0 1 2467.51 4566)">Nov</text></g><g><text fill="#BFBFBF" font-family="Calibri,Calibri_MSFontService,sans-serif" font-weight="400" font-size="41" transform="matrix(1 0 0 1 2631.27 4566)">Dec</text></g><g><text fill="#BFBFBF" font-family="Calibri,Calibri_MSFontService,sans-serif" font-weight="400" font-size="41" transform="matrix(1 0 0 1 2787.48 4566)">Year</text></g><g><text fill="#BFBFBF" font-family="Calibri,Calibri_MSFontService,sans-serif" font-weight="400" font-size="41" transform="matrix(1 0 0 1 485.765 4513)">13,000</text></g><g><text fill="#BFBFBF" font-family="Calibri,Calibri_MSFontService,sans-serif" font-weight="400" font-size="41" transform="matrix(1 0 0 1 485.765 4420)">14,000</text></g><g><text fill="#BFBFBF" font-family="Calibri,Calibri_MSFontService,sans-serif" font-weight="400" font-size="41" transform="matrix(1 0 0 1 485.765 4327)">15,000</text></g><g><text fill="#BFBFBF" font-family="Calibri,Calibri_MSFontService,sans-serif" font-weight="400" font-size="41" transform="matrix(1 0 0 1 485.765 4235)">16,000</text></g><g><text fill="#BFBFBF" font-family="Calibri,Calibri_MSFontService,sans-serif" font-weight="400" font-size="41" transform="matrix(1 0 0 1 485.765 4142)">17,000</text></g><g><text fill="#BFBFBF" font-family="Calibri,Calibri_MSFontService,sans-serif" font-weight="400" font-size="41" transform="matrix(1 0 0 1 485.765 4049)">18,000</text></g><g><text fill="#BFBFBF" font-family="Calibri,Calibri_MSFontService,sans-serif" font-weight="400" font-size="41" transform="matrix(1 0 0 1 485.765 3956)">19,000</text></g><g><text fill="#BFBFBF" font-family="Calibri,Calibri_MSFontService,sans-serif" font-weight="400" font-size="41" transform="matrix(1 0 0 1 485.765 3864)">20,000</text></g><g><text fill="#BFBFBF" font-family="Calibri,Calibri_MSFontService,sans-serif" font-weight="400" font-size="41" transform="matrix(1 0 0 1 485.765 3771)">21,000</text></g><g><text fill="#BFBFBF" font-family="Calibri,Calibri_MSFontService,sans-serif" font-weight="400" font-size="41" transform="matrix(1 0 0 1 485.765 3678)">22,000</text></g><g><text fill="#BFBFBF" font-family="Calibri,Calibri_MSFontService,sans-serif" font-weight="400" font-size="41" transform="matrix(1 0 0 1 485.765 3586)">23,000</text></g><g><text fill="#BFBFBF" font-family="Calibri,Calibri_MSFontService,sans-serif" font-weight="400" font-size="41" transform="matrix(1 0 0 1 485.765 3493)">24,000</text></g><g><text fill="#BFBFBF" font-family="Calibri,Calibri_MSFontService,sans-serif" font-weight="400" font-size="41" transform="matrix(1 0 0 1 485.765 3400)">25,000</text></g><g><text fill="#BFBFBF" font-family="Calibri,Calibri_MSFontService,sans-serif" font-weight="400" font-size="41" transform="matrix(1 0 0 1 485.765 3307)">26,000</text></g><g><text fill="#BFBFBF" font-family="Calibri,Calibri_MSFontService,sans-serif" font-weight="400" font-size="41" transform="matrix(1 0 0 1 485.765 3215)">27,000</text></g><g><text fill="#BFBFBF" font-family="Calibri,Calibri_MSFontService,sans-serif" font-weight="400" font-size="41" transform="matrix(1 0 0 1 485.765 3122)">28,000</text></g><g><text fill="#BFBFBF" font-family="Calibri,Calibri_MSFontService,sans-serif" font-weight="400" font-size="41" transform="matrix(1 0 0 1 485.765 3029)">29,000</text></g><g><text fill="#BFBFBF" font-family="Calibri,Calibri_MSFontService,sans-serif" font-weight="700" font-size="41" transform="matrix(1 0 0 1 1204.06 4630)">Perceived Pressure Altitude based on Mean Monthly Temperature </text></g><g><text fill="#BFBFBF" font-family="Calibri,Calibri_MSFontService,sans-serif" font-weight="700" font-size="41" transform="matrix(6.12323e-17 -1 1 6.12323e-17 460.671 3892)">Altitude in Feet</text></g><g><text fill="#FFFFFF" font-family="Calibri,Calibri_MSFontService,sans-serif" font-weight="700" font-size="64" transform="matrix(1 0 0 1 1158.07 2746)">Physical Altitude vs. Pressure Altitude</text></g><g><path d="M951 2842 1039 2842" stroke="#FF0000" stroke-width="8.02228" stroke-linecap="round" stroke-linejoin="round" stroke-miterlimit="10" fill="none" fill-rule="evenodd"/></g><g><path d="M994.5 2830.5 1005.5 2852.5 983.5 2852.5Z" stroke="#FF0000" stroke-width="4.58333" stroke-linejoin="round" stroke-miterlimit="10" fill="#115472"/></g><g><text fill="#F2F2F2" font-family="Calibri,Calibri_MSFontService,sans-serif" font-weight="700" font-size="50" transform="matrix(1 0 0 1 1048.23 2856)">Denali</text></g><g><path d="M1313 2842 1401 2842" stroke="#FFC000" stroke-width="8.02228" stroke-linecap="round" stroke-linejoin="round" stroke-miterlimit="10" fill="none" fill-rule="evenodd"/></g><g><path d="M1356.5 2830.5 1367.5 2841.5 1356.5 2852.5 1345.5 2841.5Z" stroke="#FFC000" stroke-width="4.58333" stroke-linejoin="round" stroke-miterlimit="10" fill="#CE632B"/></g><g><text fill="#F2F2F2" font-family="Calibri,Calibri_MSFontService,sans-serif" font-weight="700" font-size="50" transform="matrix(1 0 0 1 1410.13 2856)">K2</text></g><g><path d="M1675 2842 1763 2842" stroke="#00B0F0" stroke-width="8.02228" stroke-linecap="round" stroke-linejoin="round" stroke-miterlimit="10" fill="none" fill-rule="evenodd"/></g><g><path d="M1707.56 2830.59 1729.56 2830.59 1729.56 2852.59 1707.56 2852.59Z" stroke="#00B0F0" stroke-width="4.58333" stroke-linejoin="round" stroke-miterlimit="10" fill="#155E1F"/></g><g><text fill="#F2F2F2" font-family="Calibri,Calibri_MSFontService,sans-serif" font-weight="700" font-size="50" transform="matrix(1 0 0 1 1772.03 2856)">Everest</text></g><g><path d="M2037 2842 2125 2842" stroke="#FFFF00" stroke-width="8.02228" stroke-linecap="round" stroke-linejoin="round" stroke-miterlimit="10" fill="none" fill-rule="evenodd"/></g><g><path d="M2091.5 2852.5 2068.5 2829.5M2068.5 2852.5 2091.5 2829.5" stroke="#FFFF00" stroke-width="4.58333" stroke-linejoin="round" stroke-miterlimit="10" fill="#0C8BBC"/></g><g><text fill="#F2F2F2" font-family="Calibri,Calibri_MSFontService,sans-serif" font-weight="700" font-size="50" transform="matrix(1 0 0 1 2133.93 2856)">Chimborazo</text></g><g><path d="M951 2930 1039 2930" stroke="#00B050" stroke-width="8.02228" stroke-linecap="round" stroke-linejoin="round" stroke-miterlimit="10" fill="none" fill-rule="evenodd"/></g><g><path d="M1005 2930C1005 2936.07 1000.08 2941 994 2941 987.925 2941 983 2936.07 983 2930 983 2923.92 987.925 2919 994 2919 1000.08 2919 1005 2923.92 1005 2930Z" stroke="#00B050" stroke-width="4.58333" stroke-linejoin="round" stroke-miterlimit="10" fill="#8D2582"/></g><g><text fill="#F2F2F2" font-family="Calibri,Calibri_MSFontService,sans-serif" font-weight="700" font-size="50" transform="matrix(1 0 0 1 1048.23 2944)">Aconcagua</text></g><g><path d="M1313 2930 1401 2930" stroke="#215F9A" stroke-width="8.02228" stroke-linecap="round" stroke-linejoin="round" stroke-miterlimit="10" fill="none" fill-rule="evenodd"/></g><g><path d="M1356.5 2919.5 1367.5 2941.5 1345.5 2941.5Z" stroke="#215F9A" stroke-width="4.58333" stroke-linejoin="round" stroke-miterlimit="10" fill="#449328"/></g><g><text fill="#F2F2F2" font-family="Calibri,Calibri_MSFontService,sans-serif" font-weight="700" font-size="50" transform="matrix(1 0 0 1 1410.13 2944)">Mt Vinson</text></g><g><path d="M1675 2930 1763 2930" stroke="#84E291" stroke-width="8.02228" stroke-linecap="square" stroke-linejoin="round" stroke-miterlimit="10" stroke-dasharray="24.0668 8.02228" fill="none" fill-rule="evenodd"/></g><g><path d="M1718.5 2919.5 1729.5 2941.5 1707.5 2941.5Z" stroke="#84E291" stroke-width="4.58333" stroke-linejoin="round" stroke-miterlimit="10" fill="#8599AA"/></g><g><text fill="#F2F2F2" font-family="Calibri,Calibri_MSFontService,sans-serif" font-weight="700" font-size="50" transform="matrix(1 0 0 1 1772.03 2944)">Mt Whitney</text></g><g><path d="M2037 2930 2125 2930" stroke="#D86ECC" stroke-width="8.02228" stroke-linecap="round" stroke-linejoin="round" stroke-miterlimit="10" fill="none" fill-rule="evenodd"/></g><g><path d="M2091.5 2941.5 2068.5 2918.5M2080.57 2918.5 2080.57 2941.5M2068.5 2941.5 2091.5 2918.5" stroke="#D86ECC" stroke-width="4.58333" stroke-linejoin="round" stroke-miterlimit="10" fill="#EEA18A"/></g><g><text fill="#F2F2F2" font-family="Calibri,Calibri_MSFontService,sans-serif" font-weight="700" font-size="50" transform="matrix(1 0 0 1 2133.93 2944)">Mt Elbert</text></g><rect x="364.5" y="2650.5" width="2592" height="2049" stroke="#D9D9D9" stroke-width="3.43858" stroke-linejoin="round" stroke-miterlimit="10" fill="none"/></g></svg>